<svg  viewBox="0 0 24 24" fill="none" xmlns="http://www.w3.org/2000/svg">
<path d="M0 12C0 13.4679 0.264047 14.8739 0.746391 16.1739L12 17.2174L23.2536 16.1739C23.736 14.8739 24 13.4679 24 12C24 10.5322 23.736 9.12612 23.2536 7.82614L12 6.78265L0.746391 7.82614C0.264047 9.12612 0 10.5322 0 12H0Z" fill="#FFDA44"/>
<path d="M23.2523 7.82611C21.5568 3.25655 17.1583 0 11.9987 0C6.83915 0 2.44063 3.25655 0.745117 7.82611H23.2523Z" fill="#D80027"/>
<path d="M0.745117 16.1739C2.44063 20.7435 6.83915 24 11.9987 24C17.1583 24 21.5568 20.7435 23.2523 16.1739H0.745117Z" fill="#D80027"/>
</svg>
