<svg viewBox="0 0 24 24" fill="none" xmlns="http://www.w3.org/2000/svg">
<path fill-rule="evenodd" clip-rule="evenodd" d="M10.9102 10.9489C11.4471 11.82 12.1804 12.5534 13.0516 13.0903L13.8734 12.5971C14.2319 12.3821 14.6862 12.4126 15.0126 12.6738L16.6077 13.9498C16.831 14.1284 16.9672 14.3941 16.9818 14.6796C16.9964 14.9652 16.888 15.2434 16.6841 15.4438L15.963 16.1528C14.9697 17.1323 13.4325 17.2982 12.2531 16.5531C10.3295 15.3089 8.69154 13.671 7.44734 11.7473C6.70226 10.5679 6.86813 9.03065 7.84764 8.03735L8.55664 7.31624C8.75709 7.11236 9.03524 7.00404 9.32079 7.01864C9.60634 7.03325 9.87198 7.16938 10.0506 7.39265L11.3267 8.98777C11.5878 9.31417 11.6183 9.76853 11.4033 10.127L10.9102 10.9489Z" stroke="#0A0A0A" stroke-width="1.15" stroke-linecap="round" stroke-linejoin="round"/>
<path fill-rule="evenodd" clip-rule="evenodd" d="M6.85052 20.0037L4.15352 20.4544C3.98533 20.4825 3.81394 20.4276 3.69338 20.307C3.57281 20.1864 3.51792 20.015 3.54602 19.8469L3.99662 17.1497C1.36492 13.0596 2.24036 7.64332 6.02658 4.59053C9.8128 1.53773 15.2915 1.83068 18.7306 5.26982C22.1697 8.70896 22.4626 14.1877 19.4097 17.9739C16.3569 21.7601 10.9406 22.6354 6.85052 20.0037Z" stroke="#0A0A0A" stroke-width="1.15" stroke-linecap="round" stroke-linejoin="round"/>
</svg>
