<svg width="50" height="50" viewBox="0 0 50 50" fill="none" xmlns="http://www.w3.org/2000/svg">
<rect width="50" height="50" rx="25" fill="#0056FF"/>
<g clip-path="url(#clip0_12148_482)">
<mask id="mask0_12148_482" style="mask-type:luminance" maskUnits="userSpaceOnUse" x="11" y="11" width="28" height="28">
<path d="M39 11H11V39H39V11Z" fill="white"/>
</mask>
<g mask="url(#mask0_12148_482)">
<path d="M36.6666 19.1666H28.5V16.8333H36.6666V19.1666ZM38.6803 30.8333C38.1646 32.3464 36.3132 34.3333 32.7292 34.3333C29.1428 34.3333 26.2378 32.3161 26.2378 27.7124C26.2378 23.1508 28.9503 20.8058 32.6148 20.8058C36.2105 20.8058 38.4062 22.8848 38.8856 25.9694C38.9766 26.5598 39.0128 27.3554 38.9965 28.4661H29.6316C29.7834 32.2123 33.6952 32.3301 34.9844 30.8333H38.6803ZM29.7133 26.1666H35.5058C35.3833 24.3618 34.1805 23.5778 32.616 23.5778C30.9056 23.5778 29.9595 24.4738 29.7133 26.1666ZM18.5436 34.3193H11V16.8578H19.1118C25.5005 16.9523 25.6218 23.2091 22.2852 24.9148C26.323 26.3848 26.4584 34.3193 18.5436 34.3193ZM14.5 23.8333H18.6814C21.6074 23.8333 22.0716 20.3333 18.3174 20.3333H14.5V23.8333ZM18.4562 27.3333H14.5V30.8519H18.3978C21.962 30.8519 21.7438 27.3333 18.4562 27.3333Z" fill="white"/>
</g>
</g>
<defs>
<clipPath id="clip0_12148_482">
<rect width="28" height="28" fill="white" transform="translate(11 11)"/>
</clipPath>
</defs>
</svg>
