<svg  viewBox="0 0 50 50" fill="none" xmlns="http://www.w3.org/2000/svg">
<rect width="50" height="50" rx="25" fill="#0a0a0a"/>
<g clip-path="url(#clip0_12160_142)">
<path fill-rule="evenodd" clip-rule="evenodd" d="M25.6004 11.0167C22.5821 11.1741 19.9281 12.0552 17.7076 13.6371C15.6071 15.1334 14.0269 17.1746 13.0828 19.6111C11.8696 22.7422 11.7995 26.4572 12.8927 29.6836C13.9344 32.758 16.0288 35.346 18.8103 36.996C20.6641 38.0956 22.7137 38.7425 25.0333 38.96C25.6712 39.0198 27.2289 39.0111 27.8848 38.9441C30.137 38.7139 32.1914 38.0546 33.9941 36.9832C34.9331 36.4252 35.553 35.9506 36.6449 34.9537L37.3201 34.3372L37.0924 34.1169C36.9672 33.9957 36.5032 33.5485 36.0613 33.123C34.6388 31.7535 33.9471 31.0854 33.3623 30.5157L32.7901 29.9583L32.2122 30.473C31.5026 31.1051 31.3542 31.2242 30.9218 31.5094C29.6244 32.365 28.0722 32.8073 26.3724 32.8057C24.6351 32.804 23.1421 32.3785 21.8194 31.5081C19.5615 30.0222 18.3345 27.5364 18.4266 24.6338C18.5102 21.999 19.6971 19.803 21.7564 18.4736C23.7192 17.2064 26.4312 16.853 28.8616 17.5477C29.5676 17.7496 30.4092 18.1354 31.0153 18.5351C31.4146 18.7984 31.5462 18.9019 32.2591 19.5137C32.5507 19.7639 32.7988 19.9723 32.8105 19.9765C32.8363 19.986 37.2777 15.6059 37.2572 15.5913C37.2493 15.5857 37.016 15.378 36.7387 15.1299C35.9413 14.4164 35.6831 14.1979 35.2843 13.8988C33.5233 12.5779 31.4808 11.6877 29.2397 11.2643C28.1299 11.0547 26.7171 10.9586 25.6004 11.0167Z" fill="white"/>
<path d="M26.1369 29.6355C28.729 29.6355 30.8304 27.5601 30.8304 24.9999C30.8304 22.4398 28.729 20.3644 26.1369 20.3644C23.5447 20.3644 21.4434 22.4398 21.4434 24.9999C21.4434 27.5601 23.5447 29.6355 26.1369 29.6355Z" fill="#F63C2C"/>
</g>
<defs>
<clipPath id="clip0_12160_142">
<rect width="28" height="28" fill="white" transform="translate(11 11)"/>
</clipPath>
</defs>
</svg>
