<svg width="50" height="50" viewBox="0 0 50 50" fill="none" xmlns="http://www.w3.org/2000/svg">
<rect width="50" height="50" rx="25" fill="#012F8D"/>
<path fill-rule="evenodd" clip-rule="evenodd" d="M26.4652 15.0961C26.4652 16.4189 25.3424 17.4312 24.2012 18.4602C23.0217 19.5238 21.8224 20.6051 21.8224 22.0655C21.7613 22.738 21.9445 23.4104 22.25 24.0218C22.25 24.0218 20.4784 22.31 20.4784 20.476C20.4784 18.6419 22.1889 15.8908 22.1889 15.8908C22.1889 17.1135 22.6776 17.4803 23.1663 17.5415H23.2274C23.7772 17.5415 24.0827 17.1135 24.0827 16.5022C24.0827 16.2489 23.9674 15.9957 23.8323 15.699C23.6413 15.2795 23.4107 14.773 23.4107 14.0568C23.4107 12.8952 24.8768 11 24.8768 11C25.9154 12.2227 26.4652 13.6288 26.4652 15.0961ZM24.6943 31.6637L24.9026 31.82L25.2441 31.4804L25.3052 31.4193L28.543 26.773C29.0928 25.9783 29.9481 25.4892 30.8644 25.3669L32.0251 25.1835L35.0796 24.7556L35.0136 24.8202L35.0188 24.8166L25.2443 38.5109L25.1832 38.572L24.9389 38.9999L24.6334 38.5109L24.5723 38.4497L15.0417 24.9026L14.9199 24.8166L14.9884 24.8268L14.9812 24.8166L14.9976 24.8282L19.013 25.428C19.1387 25.428 19.2069 25.4567 19.2966 25.4945C19.3376 25.5118 19.3831 25.531 19.4406 25.5502C19.5017 25.5502 19.6239 25.6114 19.6239 25.6114C19.7461 25.6521 19.8139 25.6928 19.8818 25.7336C19.9157 25.754 19.9497 25.7744 19.9904 25.7948C20.0515 25.8253 20.0973 25.8559 20.1432 25.8865C20.189 25.917 20.2348 25.9476 20.2959 25.9782C20.3162 25.9985 20.3434 26.0189 20.3705 26.0393C20.4248 26.0801 20.4792 26.1208 20.4792 26.1616C20.5097 26.1921 20.5402 26.2074 20.5708 26.2227C20.6013 26.238 20.6319 26.2533 20.6624 26.2839C20.7846 26.345 20.8457 26.4061 20.8457 26.4673C20.9092 26.5308 20.9654 26.5944 21.0193 26.6554C21.121 26.7704 21.2147 26.8764 21.3344 26.9563L24.5722 31.5415L24.6332 31.6026L24.6943 31.6637ZM17.241 26.4058L17.1802 26.345L17.1192 26.2839H17.0582L17.241 26.4058ZM22.6166 22.3099C22.6166 23.716 23.7163 24.8776 25.1824 24.8776C29.6731 24.8776 29.2488 20.0162 29.2162 19.6421C29.215 19.6295 29.2144 19.6219 29.2144 19.6199C29.1533 20.9038 28.3591 22.0042 27.1984 22.4933C27.1373 22.5544 27.0762 22.5544 27.0151 22.5544C26.4042 22.5544 26.2209 22.2487 26.2209 21.8208C26.2209 21.3939 26.561 21.0496 26.9618 20.6438C27.5368 20.0614 28.2369 19.3525 28.2369 18.0916C28.2369 16.4731 27.1994 14.964 26.9829 14.6492C26.9704 14.631 26.9607 14.6168 26.954 14.6068C26.954 16.8751 25.6999 18.012 24.5404 19.0633C23.5436 19.967 22.6166 20.8074 22.6166 22.2487V22.3099ZM22.1901 25.7337L24.9392 29.5851L27.566 25.6725L24.9392 26.3182L22.1901 25.7337Z" fill="white"/>
</svg>
