<svg width="50" height="50" viewBox="0 0 50 50" fill="none" xmlns="http://www.w3.org/2000/svg">
<rect width="50" height="50" rx="25" fill="#E04A84"/>
<g clip-path="url(#clip0_12148_491)">
<mask id="mask0_12148_491" style="mask-type:luminance" maskUnits="userSpaceOnUse" x="11" y="11" width="28" height="28">
<path d="M39 11H11V39H39V11Z" fill="white"/>
</mask>
<g mask="url(#mask0_12148_491)">
<path fill-rule="evenodd" clip-rule="evenodd" d="M25 11C17.2708 11 11 17.2708 11 25C11 32.7292 17.2708 39 25 39C32.714 39 39 32.7292 39 25C39 17.2708 32.714 11 25 11ZM34.247 17.4528C35.9707 19.552 36.9246 22.1777 36.9502 24.8938C36.5558 24.818 32.6078 24.013 28.6295 24.5146C28.5374 24.3164 28.4615 24.104 28.3705 23.8916C28.1231 23.3076 27.8601 22.7303 27.5818 22.1604C31.9848 20.3684 33.9892 17.7876 34.247 17.4528ZM25 13.0662C28.0368 13.0662 30.8158 14.2037 32.9264 16.0715C32.714 16.3748 30.9068 18.7898 26.6555 20.3835C24.6955 16.7855 22.5255 13.8385 22.1906 13.3835C23.1116 13.1685 24.0544 13.0616 25 13.065V13.0662ZM19.9134 14.1885C20.2318 14.6143 22.3575 17.5754 24.3466 21.0975C18.7584 22.5862 13.8233 22.5558 13.2925 22.5558C14.0672 18.8505 16.5732 15.7682 19.9134 14.1885ZM13.0347 25.0152V24.6512C13.5515 24.6664 19.351 24.7422 25.3196 22.9502C25.6685 23.6186 25.987 24.3012 26.2904 24.9848C26.1386 25.0304 25.9718 25.0758 25.8202 25.1214C19.6555 27.1105 16.3748 32.546 16.1018 33.0022C14.1271 30.8106 13.0344 27.9651 13.0347 25.0152ZM25 36.9654C22.2362 36.9654 19.6858 36.0238 17.6664 34.4454C17.8786 34.0044 20.3076 29.3272 27.0498 26.974C27.0802 26.9588 27.0965 26.9588 27.1256 26.9436C28.8115 31.3012 29.494 34.961 29.6772 36.0086C28.234 36.6316 26.6555 36.9654 25 36.9654ZM31.6664 34.9155C31.545 34.1864 30.9068 30.6945 29.3424 26.3965C33.0932 25.805 36.3726 26.7768 36.7834 26.9134C36.2665 30.2384 34.3532 33.1084 31.6664 34.9155Z" fill="white"/>
</g>
</g>
<defs>
<clipPath id="clip0_12148_491">
<rect width="28" height="28" fill="white" transform="translate(11 11)"/>
</clipPath>
</defs>
</svg>
