<svg viewBox="0 0 50 50" fill="none" xmlns="http://www.w3.org/2000/svg">
<rect width="50" height="50" rx="25" fill="url(#paint0_linear_12148_566)"/>
<path fill-rule="evenodd" clip-rule="evenodd" d="M19.7105 12.2437C21.0789 12.1807 21.5153 12.1667 25.0013 12.1667C28.4873 12.1667 28.9236 12.1819 30.2909 12.2437C31.6583 12.3056 32.5916 12.5237 33.4083 12.8399C34.2635 13.1631 35.0393 13.6682 35.6809 14.3216C36.3343 14.9621 36.8383 15.7367 37.1603 16.5931C37.4776 17.4097 37.6946 18.3431 37.7576 19.7081C37.8207 21.0789 37.8347 21.5152 37.8347 25.0001C37.8347 28.4861 37.8195 28.9224 37.7576 30.2909C37.6958 31.6559 37.4776 32.5892 37.1603 33.4059C36.8383 34.2623 36.3335 35.0383 35.6809 35.6797C35.0393 36.3331 34.2635 36.8371 33.4083 37.1591C32.5916 37.4764 31.6583 37.6934 30.2933 37.7564C28.9236 37.8194 28.4873 37.8334 25.0013 37.8334C21.5153 37.8334 21.0789 37.8182 19.7105 37.7564C18.3455 37.6946 17.4121 37.4764 16.5955 37.1591C15.739 36.837 14.9631 36.3322 14.3216 35.6797C13.6687 35.0389 13.1635 34.2633 12.8411 33.4071C12.525 32.5904 12.308 31.6571 12.245 30.2921C12.182 28.9212 12.168 28.4849 12.168 25.0001C12.168 21.5141 12.1831 21.0777 12.245 19.7104C12.3068 18.3431 12.525 17.4097 12.8411 16.5931C13.164 15.7368 13.6696 14.9613 14.3228 14.3204C14.9633 13.6677 15.7385 13.1624 16.5943 12.8399C17.4109 12.5237 18.3443 12.3067 19.7093 12.2437H19.7105ZM30.1871 14.5537C28.8338 14.4919 28.4278 14.4791 25.0013 14.4791C21.5748 14.4791 21.1688 14.4919 19.8155 14.5537C18.5637 14.6109 17.8847 14.8197 17.4319 14.9959C16.8335 15.2292 16.4053 15.5057 15.9561 15.9549C15.5304 16.3691 15.2027 16.8734 14.9971 17.4307C14.821 17.8834 14.6121 18.5624 14.555 19.8142C14.4931 21.1676 14.4803 21.5736 14.4803 25.0001C14.4803 28.4266 14.4931 28.8326 14.555 30.1859C14.6121 31.4377 14.821 32.1167 14.9971 32.5694C15.2025 33.1259 15.5303 33.6311 15.9561 34.0452C16.3703 34.4711 16.8755 34.7989 17.4319 35.0042C17.8847 35.1804 18.5637 35.3892 19.8155 35.4464C21.1688 35.5082 21.5737 35.5211 25.0013 35.5211C28.4289 35.5211 28.8338 35.5082 30.1871 35.4464C31.4389 35.3892 32.1179 35.1804 32.5706 35.0042C33.1691 34.7709 33.5973 34.4944 34.0465 34.0452C34.4723 33.6311 34.8001 33.1259 35.0055 32.5694C35.1816 32.1167 35.3905 31.4377 35.4476 30.1859C35.5095 28.8326 35.5223 28.4266 35.5223 25.0001C35.5223 21.5736 35.5095 21.1676 35.4476 19.8142C35.3905 18.5624 35.1816 17.8834 35.0055 17.4307C34.7721 16.8322 34.4957 16.4041 34.0465 15.9549C33.6322 15.5292 33.128 15.2015 32.5706 14.9959C32.1179 14.8197 31.4389 14.6109 30.1871 14.5537ZM23.3621 28.9562C24.2776 29.3373 25.2969 29.3888 26.2461 29.1018C27.1952 28.8148 28.0153 28.2072 28.5662 27.3827C29.1171 26.5582 29.3647 25.5681 29.2667 24.5814C29.1687 23.5947 28.7311 22.6726 28.0288 21.9726C27.581 21.5251 27.0397 21.1825 26.4437 20.9694C25.8477 20.7563 25.2118 20.678 24.5819 20.7401C23.952 20.8023 23.3436 21.0033 22.8007 21.3287C22.2579 21.6542 21.7938 22.0959 21.4422 22.6222C21.0905 23.1485 20.8599 23.7463 20.7669 24.3723C20.674 24.9985 20.721 25.6374 20.9046 26.2432C21.0882 26.8489 21.4039 27.4065 21.8288 27.8756C22.2538 28.3447 22.7774 28.7138 23.3621 28.9562ZM20.3369 20.3357C20.9495 19.7232 21.6767 19.2373 22.477 18.9058C23.2773 18.5743 24.135 18.4037 25.0013 18.4037C25.8676 18.4037 26.7253 18.5743 27.5256 18.9058C28.3259 19.2373 29.0531 19.7232 29.6656 20.3357C30.2782 20.9483 30.764 21.6754 31.0956 22.4757C31.427 23.2761 31.5976 24.1338 31.5976 25.0001C31.5976 25.8663 31.427 26.7241 31.0956 27.5244C30.764 28.3247 30.2782 29.0519 29.6656 29.6644C28.4286 30.9015 26.7507 31.5965 25.0013 31.5965C23.2519 31.5965 21.574 30.9015 20.3369 29.6644C19.0999 28.4274 18.4049 26.7495 18.4049 25.0001C18.4049 23.2506 19.0999 21.5728 20.3369 20.3357ZM33.0606 19.3861C33.2124 19.2429 33.3339 19.0707 33.418 18.8797C33.502 18.6887 33.5469 18.4828 33.55 18.2742C33.553 18.0655 33.5141 17.8584 33.4357 17.665C33.3572 17.4717 33.2408 17.296 33.0932 17.1485C32.9457 17.0009 32.7701 16.8845 32.5767 16.806C32.3833 16.7276 32.1762 16.6887 31.9675 16.6918C31.7589 16.6948 31.553 16.7397 31.362 16.8237C31.171 16.9078 30.9988 17.0293 30.8556 17.1811C30.5772 17.4763 30.4247 17.8684 30.4306 18.2742C30.4365 18.6799 30.6003 19.0675 30.8873 19.3544C31.1743 19.6413 31.5618 19.8052 31.9675 19.8111C32.3733 19.817 32.7654 19.6645 33.0606 19.3861Z" fill="white"/>
<defs>
<linearGradient id="paint0_linear_12148_566" x1="50" y1="0" x2="0" y2="50" gradientUnits="userSpaceOnUse">
<stop stop-color="#833DAA"/>
<stop offset="0.521014" stop-color="#D3326F"/>
<stop offset="1" stop-color="#F4A045"/>
</linearGradient>
</defs>
</svg>
