<svg width="50" height="50" viewBox="0 0 50 50" fill="none" xmlns="http://www.w3.org/2000/svg">
<rect width="50" height="50" rx="25" fill="#0163C1"/>
<path fill-rule="evenodd" clip-rule="evenodd" d="M21.7951 21.3705H26.1281V23.5288C26.7522 22.2875 28.353 21.1722 30.7574 21.1722C35.367 21.1722 36.4612 23.6432 36.4612 28.1768V36.5733H31.7946V29.2093C31.7946 26.6275 31.1704 25.1715 29.5814 25.1715C27.3776 25.1715 26.4618 26.7406 26.4618 29.2082V36.5733H21.7951V21.3705ZM13.7929 36.375H18.4596V21.1722H13.7929V36.375ZM19.1281 16.215C19.1283 16.6062 19.0507 16.9934 18.8999 17.3544C18.7491 17.7152 18.528 18.0426 18.2496 18.3173C17.6854 18.8781 16.9217 19.1919 16.1263 19.19C15.3322 19.1895 14.5703 18.8764 14.0053 18.3185C13.7278 18.0428 13.5075 17.7151 13.357 17.3541C13.2064 16.9932 13.1286 16.6061 13.1279 16.215C13.1279 15.4252 13.4429 14.6692 14.0064 14.1115C14.571 13.5528 15.3332 13.2396 16.1274 13.24C16.9231 13.24 17.6861 13.5538 18.2496 14.1115C18.812 14.6692 19.1281 15.4252 19.1281 16.215Z" fill="white"/>
</svg>
