<svg width="50" height="50" viewBox="0 0 50 50" fill="none" xmlns="http://www.w3.org/2000/svg">
<rect width="50" height="50" rx="25" fill="#B7091B"/>
<g clip-path="url(#clip0_12160_114)">
<mask id="mask0_12160_114" style="mask-type:luminance" maskUnits="userSpaceOnUse" x="11" y="11" width="28" height="28">
<path d="M39 11H11V39H39V11Z" fill="white"/>
</mask>
<g mask="url(#mask0_12160_114)">
<path d="M11 25C11 30.9768 14.7462 36.0798 20.0184 38.0876C19.89 36.9945 19.7535 35.192 20.0475 33.9274C20.3006 32.84 21.682 26.9996 21.682 26.9996C21.682 26.9996 21.2655 26.1655 21.2655 24.93C21.2655 22.9934 22.3878 21.5466 23.7866 21.5466C24.9766 21.5466 25.5506 22.4392 25.5506 23.509C25.5506 24.7048 24.7888 26.4922 24.3956 28.15C24.0678 29.5372 25.0922 30.6688 26.4595 30.6688C28.9364 30.6688 30.8415 28.0566 30.8415 24.286C30.8415 20.9482 28.4428 18.616 25.0186 18.616C21.0544 18.616 18.7268 21.5898 18.7268 24.664C18.7268 25.8622 19.1876 27.1455 19.764 27.8444C19.8131 27.8971 19.8478 27.9617 19.8648 28.0317C19.8818 28.1018 19.8804 28.1751 19.8608 28.2445C19.7546 28.6855 19.519 29.6316 19.4735 29.8254C19.4116 30.0796 19.2716 30.1345 19.0068 30.0108C17.2662 29.2012 16.1788 26.6566 16.1788 24.6126C16.1788 20.2155 19.372 16.1788 25.3862 16.1788C30.2208 16.1788 33.9786 19.624 33.9786 24.2276C33.9786 29.0308 30.9512 32.8972 26.7465 32.8972C25.3336 32.8972 24.0072 32.1622 23.5522 31.2954C23.5522 31.2954 22.8534 33.9576 22.6842 34.6086C22.3552 35.8734 21.4428 37.474 20.877 38.3828C22.1814 38.7842 23.565 39 25 39C32.7315 39 39 32.7315 39 25C39 17.2685 32.7315 11 25 11C17.2685 11 11 17.2685 11 25Z" fill="white"/>
</g>
</g>
<defs>
<clipPath id="clip0_12160_114">
<rect width="28" height="28" fill="white" transform="translate(11 11)"/>
</clipPath>
</defs>
</svg>
